<?xml version="1.0" standalone="no"?>
<!DOCTYPE svg PUBLIC "-//W3C//DTD SVG 20010904//EN"
 "http://www.w3.org/TR/2001/REC-SVG-20010904/DTD/svg10.dtd">
<svg version="1.0" xmlns="http://www.w3.org/2000/svg"
 width="256.000000pt" height="256.000000pt" viewBox="0 0 256.000000 256.000000"
 preserveAspectRatio="xMidYMid meet">

<g transform="translate(0.000000,256.000000) scale(0.100000,-0.100000)"
fill="#000000" stroke="none">
<path d="M1345 2426 c-27 -7 -60 -18 -72 -24 -15 -8 -29 -9 -40 -4 -83 43
-253 6 -385 -81 -76 -51 -207 -182 -330 -332 -123 -149 -208 -345 -208 -478 0
-95 31 -144 44 -68 9 59 89 210 141 266 26 28 44 41 40 30 -3 -11 -15 -46 -26
-78 -22 -66 -59 -270 -59 -328 0 -53 -19 -137 -41 -180 -34 -69 -134 -150
-213 -174 -41 -12 39 -65 99 -65 30 0 35 -3 31 -17 -31 -98 -24 -193 17 -254
25 -37 47 -48 47 -25 0 50 84 216 109 216 5 0 11 -13 14 -29 3 -15 22 -49 41
-74 19 -25 33 -47 30 -49 -9 -9 -16 -119 -10 -153 9 -47 28 -44 50 7 21 47 63
108 75 108 15 0 34 -55 32 -92 -1 -20 3 -46 9 -57 10 -20 8 -21 -69 -21 -80 0
-128 -19 -54 -21 21 -1 61 -2 90 -3 40 -1 58 -7 78 -26 23 -21 36 -25 93 -25
37 0 101 3 142 7 62 6 71 5 54 -5 -25 -14 -170 -167 -158 -167 4 0 -3 -11 -16
-24 -14 -16 -20 -31 -16 -42 6 -15 17 -16 84 -10 196 16 329 19 336 7 9 -14
148 -15 163 0 8 8 47 8 145 1 73 -6 172 -14 221 -17 l87 -7 0 26 c0 13 -4 28
-10 31 -5 3 -10 13 -10 22 0 8 -13 32 -30 53 -16 21 -30 40 -30 43 0 11 118
45 141 40 18 -3 40 9 84 45 l60 49 83 -2 c57 -1 82 3 82 11 0 8 -26 11 -80 11
-92 1 -105 8 -122 67 -6 22 -24 60 -40 83 -33 49 -34 53 -10 53 10 0 38 18 62
40 32 30 46 37 52 28 24 -36 38 -70 38 -93 0 -58 61 -7 81 68 10 39 7 116 -7
173 -6 24 -5 25 14 15 11 -6 40 -11 64 -11 70 0 127 41 76 53 -13 4 -38 19
-57 35 l-34 29 21 44 c56 115 46 256 -29 422 -22 51 -43 97 -45 103 -3 7 11
11 39 11 47 1 97 22 135 56 33 31 28 44 -20 44 -91 0 -209 96 -309 251 -82
128 -166 236 -226 294 -107 102 -248 177 -374 197 -79 13 -110 13 -174 -3z
m210 -31 c142 -37 295 -137 390 -254 29 -36 88 -120 130 -186 112 -173 221
-273 320 -295 l30 -6 -42 -22 c-41 -21 -95 -28 -127 -16 -9 3 -33 29 -53 58
-44 60 -132 156 -144 156 -5 0 20 -35 54 -77 109 -135 156 -214 204 -343 49
-127 49 -281 1 -358 l-22 -36 -11 50 c-15 66 -49 134 -96 194 -22 27 -39 55
-39 63 0 50 -82 299 -94 286 -2 -2 9 -42 24 -89 37 -110 49 -186 45 -287 -2
-66 -8 -91 -30 -132 -16 -28 -37 -59 -48 -68 -19 -18 -19 -17 -11 17 16 63 6
152 -27 246 -25 73 -32 108 -34 194 -2 58 -9 134 -16 170 -25 135 -89 288
-157 378 -45 59 -43 33 3 -35 94 -140 150 -346 142 -523 -5 -124 -29 -197 -85
-260 l-37 -42 -1 99 c-1 132 -42 302 -116 481 -40 96 -54 93 -17 -4 33 -83 99
-307 93 -313 -9 -10 -118 72 -196 148 -85 82 -118 100 -82 46 15 -23 15 -28 3
-36 -17 -11 -29 -12 -28 -1 4 24 -2 52 -11 47 -5 -3 -10 -31 -10 -61 0 -124
-53 -353 -98 -422 -17 -26 -17 -26 -22 73 l-5 100 -22 -88 c-12 -48 -33 -113
-48 -144 l-25 -56 -24 22 c-65 61 -102 190 -94 324 4 56 3 72 -3 52 -12 -41
-12 -162 0 -205 l10 -35 -21 25 c-33 40 -67 120 -89 216 -29 122 -31 127 -39
64 -8 -65 -24 -118 -56 -181 -25 -51 -100 -149 -113 -149 -18 0 -58 150 -62
233 -2 26 -6 47 -11 47 -10 0 -10 -20 2 -100 20 -133 75 -268 140 -338 38 -42
38 -46 -2 -26 -86 43 -185 174 -213 280 -29 113 -25 285 9 386 8 21 10 38 6
38 -19 0 -42 -102 -47 -208 -6 -117 6 -226 33 -291 12 -30 12 -40 -2 -86 -16
-49 -20 -53 -53 -59 -20 -3 -49 -13 -65 -21 l-29 -15 7 59 c4 33 15 90 26 128
19 68 20 90 2 56 -20 -38 -43 -117 -52 -185 -6 -38 -17 -79 -25 -91 -19 -27
-19 -48 -1 -41 11 4 16 -4 18 -33 2 -31 -4 -48 -37 -93 -36 -50 -59 -94 -80
-155 -13 -34 -37 41 -38 115 0 73 36 175 79 221 26 27 30 39 14 39 -6 0 -26
-23 -46 -50 -34 -48 -38 -50 -82 -50 -26 0 -54 5 -62 10 -8 5 -10 10 -4 10 26
0 131 82 165 127 44 60 66 119 74 203 13 144 16 167 26 220 15 78 58 218 81
263 11 22 17 41 15 44 -10 9 -64 -26 -98 -64 -52 -57 -96 -125 -131 -199 -17
-36 -32 -64 -33 -62 -1 2 1 31 6 65 24 173 166 409 340 567 116 104 332 189
421 165 20 -5 40 -14 43 -19 3 -6 11 -10 17 -10 17 0 -12 29 -46 47 -52 27
-216 -7 -302 -63 -13 -9 -27 -14 -30 -11 -12 12 163 115 230 136 77 24 166 27
211 7 25 -11 35 -11 60 2 68 34 176 41 270 17z m55 -864 c38 -33 79 -65 90
-71 27 -15 18 -26 -27 -33 -27 -5 -42 -2 -56 11 -18 16 -20 16 -33 -3 -8 -10
-14 -25 -14 -32 0 -7 -13 -19 -29 -27 -41 -22 -84 -70 -98 -111 -12 -36 -5
-46 17 -20 18 21 28 19 28 -8 0 -33 28 -90 53 -105 29 -18 39 -5 13 16 -19 15
-44 52 -44 65 0 14 46 14 66 0 22 -14 26 -14 49 1 14 9 25 22 25 29 0 14 55
39 64 29 10 -9 7 -82 -4 -103 -8 -14 -7 -19 2 -19 16 0 47 20 33 20 -6 0 -9
16 -7 38 3 36 -5 80 -23 125 -6 14 -2 17 28 17 50 0 60 -18 55 -97 -3 -38 -7
-75 -9 -83 -2 -9 4 -16 16 -18 34 -5 92 54 129 129 33 70 34 70 43 42 13 -36
3 -63 -36 -96 -17 -14 -31 -28 -31 -32 0 -3 -18 -32 -39 -64 -44 -64 -109
-122 -187 -169 -82 -48 -88 -48 -109 -3 -9 22 -30 52 -46 67 l-28 27 -64 -41
c-36 -23 -80 -45 -98 -50 -33 -8 -34 -10 -35 -63 l-1 -54 -38 -3 c-60 -5 -196
16 -224 35 -14 10 -30 16 -35 15 -14 -5 -56 28 -56 43 0 8 7 15 16 15 11 0 -6
23 -45 61 -33 33 -61 65 -61 71 0 5 4 6 10 3 5 -3 10 3 10 13 0 22 15 36 46
46 19 6 22 2 27 -34 3 -22 17 -56 32 -75 14 -20 24 -39 21 -44 -10 -15 22 -21
34 -6 8 10 7 16 -8 27 -19 14 -52 58 -52 69 0 18 46 17 66 -2 18 -16 26 -19
42 -10 11 6 22 17 26 26 3 8 14 15 24 15 24 0 43 -40 30 -64 -5 -10 -7 -20 -3
-24 8 -8 25 19 19 30 -9 14 7 8 34 -13 l26 -20 18 23 c10 13 26 46 35 73 l18
50 3 -37 c4 -46 12 -47 45 -8 46 54 100 228 112 361 6 58 12 78 29 91 11 10
25 18 29 18 4 0 39 -27 77 -59z m-606 -133 c5 -21 3 -28 -8 -28 -21 0 -25 11
-15 39 11 28 14 26 23 -11z m41 -114 l31 -64 -31 0 c-19 0 -39 8 -50 20 -10
11 -24 20 -30 20 -7 0 -15 -9 -18 -20 -3 -13 -14 -20 -30 -20 l-25 0 39 69
c52 88 71 87 114 -5z m585 -21 c0 -29 -31 -47 -53 -30 -9 7 -19 24 -22 38 -6
23 -2 28 22 37 32 11 53 -6 53 -45z m590 -118 c22 -47 34 -86 34 -118 1 -47 2
-48 28 -43 19 4 36 -3 64 -24 20 -17 42 -30 48 -31 6 0 2 -4 -9 -8 -19 -8
-120 0 -129 10 -2 2 -18 32 -35 67 -17 34 -36 62 -41 62 -13 0 -13 0 10 -48
23 -47 26 -64 7 -37 -11 14 -16 15 -22 5 -6 -10 -9 -9 -16 1 -4 7 -11 10 -15
6 -10 -9 34 -103 65 -140 18 -22 26 -25 32 -15 5 8 8 -14 7 -52 -1 -55 -2 -59
-7 -25 l-6 40 -33 -16 c-26 -14 -30 -19 -18 -28 8 -6 20 -26 27 -43 11 -27 14
-29 20 -12 5 13 8 14 8 4 0 -8 -3 -21 -8 -28 -6 -10 -11 -6 -20 16 -7 16 -25
43 -41 60 l-29 32 24 0 c29 0 55 9 55 20 0 4 -15 31 -34 59 -36 53 -76 148
-76 180 0 10 9 38 19 62 11 24 23 68 27 97 8 62 12 59 64 -53z m-209 -25 c0
-36 -5 -78 -10 -94 -6 -15 -11 -32 -11 -37 0 -17 28 -9 58 16 17 14 32 25 35
25 3 0 8 -17 12 -37 7 -40 58 -148 75 -158 5 -3 10 -10 10 -15 0 -12 -56 -2
-92 17 -24 12 -28 19 -28 58 0 25 -3 45 -7 45 -5 0 -8 -21 -9 -48 -1 -59 -17
-117 -46 -162 l-23 -35 -3 43 -3 43 -44 -40 c-24 -22 -65 -51 -92 -64 -53 -28
-80 -49 -107 -87 -18 -25 -18 -25 -13 40 6 83 27 124 76 149 66 34 132 128
130 185 0 13 -7 4 -16 -23 -9 -26 -38 -67 -67 -98 -52 -52 -53 -53 -112 -53
-32 1 -70 7 -83 14 -24 13 -23 13 25 32 66 25 132 93 173 179 42 88 75 140
120 188 l36 38 8 -28 c4 -15 8 -57 8 -93z m-917 14 c10 -25 7 -41 -8 -47 -18
-7 -42 12 -51 41 -6 19 -3 22 23 22 18 0 32 -6 36 -16z m-362 -48 l27 -33 -39
-1 c-42 -2 -45 3 -34 46 8 29 13 27 46 -12z m-15 -78 l35 -21 -7 21 c-3 12 -3
22 0 22 23 0 108 -58 127 -86 25 -37 38 -43 38 -17 0 11 12 2 36 -26 29 -33
37 -51 38 -86 1 -31 -2 -45 -11 -45 -17 0 -16 -28 2 -64 21 -40 20 -43 -31
-50 -85 -11 -175 55 -230 170 -36 77 -70 111 -137 139 -21 9 -49 13 -65 9 -26
-5 -27 -5 -7 11 58 49 154 60 212 23z m818 -12 c14 -19 27 -47 28 -62 2 -27
-1 -29 -73 -50 -41 -12 -96 -24 -121 -28 -45 -7 -46 -6 -52 22 -9 43 2 72 27
72 11 0 50 18 86 40 36 22 68 40 72 40 4 0 19 -15 33 -34z m259 -4 c-36 -62
-50 -75 -73 -67 -24 7 -20 20 12 36 18 9 20 9 10 -2 -21 -22 -15 -34 7 -14 11
10 18 21 15 23 -5 5 34 52 42 52 2 0 -3 -13 -13 -28z m-1216 -53 l32 -11 -3
-91 c-1 -51 2 -103 7 -117 l8 -25 -27 25 c-37 34 -61 84 -74 155 -6 32 -11 62
-11 67 0 11 31 10 68 -3z m1656 -49 c4 -24 3 -28 -2 -15 -14 31 -24 83 -13 65
5 -8 11 -31 15 -50z m-534 15 l25 -14 -45 -20 c-25 -11 -57 -21 -72 -21 -40 0
-45 -20 -14 -47 25 -22 27 -26 16 -58 -9 -29 -23 -40 -82 -70 -39 -19 -83 -35
-99 -35 -42 0 -179 32 -179 42 0 4 6 8 14 8 17 0 76 48 76 61 0 5 -17 9 -37 9
-21 1 -51 6 -67 13 -26 11 -27 14 -12 26 30 25 93 30 154 11 31 -10 82 -20
112 -23 40 -5 46 -4 22 2 -18 5 -35 11 -37 13 -11 11 158 118 185 118 8 -1 26
-7 40 -15z m-1002 -114 l31 -63 -43 -57 c-23 -31 -55 -76 -69 -101 l-27 -45 6
50 c10 92 12 96 34 83 25 -16 50 3 33 24 -6 7 -14 27 -17 44 -5 23 -2 34 11
45 16 13 17 12 5 -3 -11 -14 -11 -24 -2 -53 14 -41 19 -43 42 -10 17 22 17 25
0 54 -9 17 -21 31 -25 31 -5 0 -5 4 -2 10 3 5 -1 22 -10 37 l-16 28 4 -27 c2
-16 -1 -32 -7 -37 -8 -7 -10 5 -7 41 4 58 7 54 59 -51z m340 54 c7 -14 12 -35
12 -45 0 -11 6 -20 14 -20 20 0 22 -6 30 -72 l7 -57 -33 -14 c-35 -15 -58 -7
-58 20 0 11 4 11 20 3 11 -6 25 -8 30 -5 16 10 32 45 21 45 -5 0 -12 -9 -16
-20 -5 -16 -9 -18 -31 -8 -42 20 -73 95 -34 83 20 -6 28 9 10 20 -18 11 -10
95 9 95 4 0 13 -11 19 -25z m482 21 c0 -2 -17 -15 -38 -29 -25 -18 -45 -24
-60 -21 -35 10 -26 19 36 36 31 8 58 16 60 17 1 0 2 -1 2 -3z m-386 -63 c36
-30 85 -53 136 -63 l35 -7 -37 -17 c-78 -34 -142 -15 -164 49 -7 22 -18 41
-24 43 -5 2 -10 8 -10 13 0 18 32 9 64 -18z m56 7 c0 -5 -7 -7 -15 -4 -8 4
-15 8 -15 10 0 2 7 4 15 4 8 0 15 -4 15 -10z m923 -17 c24 -7 22 -14 -20 -55
-38 -36 -89 -68 -82 -51 47 112 54 123 68 117 9 -3 24 -9 34 -11z m-446 -31
c20 -13 0 -68 -23 -64 -26 5 -26 5 -13 40 11 34 16 37 36 24z m-867 -91 c0 -4
-13 -20 -29 -35 l-29 -28 -7 30 c-4 18 -1 38 6 50 12 18 14 19 36 5 13 -8 23
-18 23 -22z m796 -1 c0 -13 -7 -20 -19 -20 -31 0 -54 -18 -61 -47 -4 -16 -14
-52 -22 -80 l-15 -53 -62 0 -63 0 -14 68 c-13 58 -18 67 -39 70 -18 3 -95 63
-79 62 2 0 37 -9 78 -20 101 -26 143 -25 220 9 80 36 76 35 76 11z m-711 -46
c22 -24 23 -27 9 -59 -17 -42 -17 -69 0 -116 l13 -37 -41 5 c-50 7 -73 26 -98
81 -18 40 -18 44 -2 77 18 38 58 75 81 75 8 0 25 -12 38 -26z m114 7 c7 -5 10
-14 7 -20 -9 -14 -37 -14 -73 0 -22 8 -24 12 -13 19 19 12 61 12 79 1z m596
-18 c-4 -10 -12 -45 -19 -78 -12 -57 -14 -60 -44 -63 -18 -2 -32 -2 -32 0 0 9
39 139 45 148 3 5 18 10 32 10 20 0 24 -4 18 -17z m26 -40 c-11 -21 -20 -32
-21 -25 0 17 30 75 36 69 3 -3 -4 -22 -15 -44z m49 -23 c0 -57 -3 -70 -16 -70
-14 0 -15 9 -9 63 7 60 11 77 21 77 2 0 4 -31 4 -70z m-351 -10 c15 -70 15
-70 -24 -70 -30 0 -35 4 -43 33 -7 23 -5 36 4 48 8 8 14 21 14 27 0 7 9 12 19
12 15 0 22 -11 30 -50z m-340 24 c17 -4 31 -10 31 -14 0 -7 30 -76 48 -112 2
-5 -28 -8 -66 -8 -78 0 -82 4 -82 86 0 56 6 60 69 48z m1050 -34 c79 -62 80
-72 19 -116 -28 -21 -53 -34 -55 -28 -7 21 -50 74 -77 95 -15 11 -45 23 -67
26 -34 5 -40 9 -37 27 3 23 35 32 120 35 40 1 53 -4 97 -39z m-139 -61 c38
-22 69 -57 70 -76 0 -10 -79 -43 -106 -43 -6 0 -15 11 -18 25 -4 16 -20 32
-41 42 -19 9 -35 19 -35 22 0 10 64 51 80 51 8 0 31 -9 50 -21z m-650 -18 c0
-6 -4 -13 -10 -16 -5 -3 -10 1 -10 9 0 9 5 16 10 16 6 0 10 -4 10 -9z m380
-13 c0 -13 -49 -20 -95 -14 -34 6 -55 2 -89 -13 -37 -16 -47 -17 -56 -6 -6 8
-25 17 -41 20 -65 14 -29 20 122 20 87 0 159 -3 159 -7z m-332 -14 c28 -20 32
-80 5 -69 -10 4 -25 9 -35 12 -19 6 -29 48 -15 62 14 14 18 14 45 -5z m92 -39
c9 -11 20 -10 57 7 34 15 56 18 89 13 41 -6 43 -7 38 -35 -15 -70 117 -111
241 -75 15 5 26 -2 44 -25 12 -17 21 -33 19 -35 -5 -4 -119 12 -221 31 -99 19
-177 15 -227 -11 -31 -16 -36 -16 -67 -1 -39 18 -110 20 -238 6 -49 -6 -107
-12 -127 -14 l-37 -4 55 67 c53 63 57 66 117 78 88 17 94 16 101 -12 4 -14 12
-25 19 -25 7 0 29 -8 49 -19 21 -10 39 -17 41 -14 3 2 2 24 -1 48 -4 41 -3 43
16 38 12 -3 26 -11 32 -18z m336 -145 c173 -26 174 -26 174 -39 0 -6 -12 -9
-27 -6 -16 2 -112 9 -215 16 -169 10 -190 10 -213 -5 -31 -20 -69 -20 -104 0
-25 15 -48 15 -212 7 -101 -6 -186 -9 -188 -7 -11 10 16 17 116 29 236 28 260
29 299 6 33 -20 37 -20 65 -5 33 17 102 32 135 29 11 -1 88 -12 170 -25z
m-386 -55 c8 -9 9 -15 2 -15 -6 0 -14 5 -18 11 -7 11 -119 9 -339 -8 -57 -4
-77 -2 -70 5 10 12 85 17 291 20 98 2 124 -1 134 -13z m390 4 c96 -6 179 -15
184 -20 13 -12 3 -12 -219 7 -147 12 -198 13 -226 4 -19 -7 -46 -10 -60 -7
-20 4 -19 4 8 6 17 0 35 6 38 11 8 13 61 13 275 -1z"/>
<path d="M1291 2310 c-43 -27 -35 -35 15 -14 80 35 233 12 333 -48 63 -38 154
-110 224 -177 37 -35 67 -60 67 -54 0 16 -137 143 -212 196 -36 26 -96 61
-133 78 -58 28 -82 33 -164 36 -85 4 -100 2 -130 -17z"/>
<path d="M1328 2213 c7 -3 16 -2 19 1 4 3 -2 6 -13 5 -11 0 -14 -3 -6 -6z"/>
<path d="M1031 2154 c-29 -15 -77 -50 -105 -78 -29 -28 -34 -34 -12 -14 23 21
76 55 119 78 43 22 72 40 65 40 -8 0 -38 -12 -67 -26z"/>
<path d="M709 2012 c-56 -61 -126 -168 -116 -178 3 -3 13 9 23 28 23 46 81
126 123 171 19 20 32 37 29 37 -3 0 -30 -26 -59 -58z"/>
<path d="M1076 1992 c-19 -31 -76 -171 -76 -188 0 -2 4 -4 8 -4 5 0 14 22 21
48 6 27 27 79 46 115 37 75 38 87 1 29z"/>
<path d="M1170 1175 c0 -18 19 -40 26 -32 4 4 0 15 -9 24 -9 10 -17 13 -17 8z"/>
<path d="M610 618 l0 -33 20 25 c13 18 15 27 7 32 -21 14 -27 8 -27 -24z"/>
<path d="M2052 749 c-11 -27 -19 -49 -16 -49 7 0 74 62 74 69 0 3 -8 11 -18
18 -17 10 -21 6 -40 -38z"/>
<path d="M747 683 c-10 -9 -8 -43 2 -43 5 0 14 7 21 15 17 21 -4 48 -23 28z"/>
<path d="M1558 603 c7 -3 16 -2 19 1 4 3 -2 6 -13 5 -11 0 -14 -3 -6 -6z"/>
<path d="M1270 390 c0 -5 5 -10 10 -10 6 0 10 5 10 10 0 6 -4 10 -10 10 -5 0
-10 -4 -10 -10z"/>
<path d="M123 820 c7 -56 63 -183 97 -218 26 -27 21 -39 -9 -20 -29 18 -45 -1
-36 -41 15 -68 174 -189 294 -225 62 -18 81 -20 81 -7 0 5 -26 19 -57 32 -95
38 -278 167 -262 184 3 2 24 -3 48 -11 23 -8 47 -12 52 -9 5 4 -8 32 -30 63
-51 76 -85 144 -107 217 -18 61 -36 85 -62 85 -12 0 -14 -10 -9 -50z"/>
</g>
</svg>
